<svg width="1860" height="1190" viewBox="0 0 1860 1190" fill="none" xmlns="http://www.w3.org/2000/svg">
<path d="M1725.2 903.462L1625.8 960.238M1580.19 986.577L1625.8 960.238M1658.54 885.317L1756.77 941.508M1642.17 894.682L1740.4 950.873M1625.8 904.048L1724.03 960.238M1609.42 913.413L1707.65 969.603M1593.05 922.778L1691.28 978.968M1625.8 960.238L1674.91 988.333" stroke="#191F28" stroke-width="3" stroke-linecap="round" stroke-linejoin="round"/>
<path d="M512.522 5L5 295.317L758.097 726.111L545.266 847.857L1134.65 1185L1855 772.936L512.522 5Z" stroke="#191F28" stroke-width="10" stroke-linejoin="round"/>
<path d="M1805.88 913.413L1707.65 857.223L1511.19 969.604L1609.42 1025.79L1805.88 913.413Z" stroke="#191F28" stroke-width="4" stroke-linejoin="round"/>
<path d="M1134.65 323.413L954.558 426.429M1232.88 379.604L1052.79 482.619" stroke="#191F28" stroke-width="4" stroke-linecap="round" stroke-linejoin="round"/>
<path d="M1152.19 369.653L1052.79 426.428M1007.18 452.768L1052.79 426.428M1085.53 351.508L1183.76 407.698M1069.16 360.873L1167.39 417.063M1052.79 370.238L1151.02 426.428M1036.42 379.603L1134.65 435.794M1020.04 388.968L1118.27 445.159M1052.79 426.428L1101.9 454.524" stroke="#191F28" stroke-width="3" stroke-linecap="round" stroke-linejoin="round"/>
<path d="M839.956 679.285L758.098 726.111L921.814 819.761L1003.67 772.936L839.956 679.285Z" stroke="#191F28" stroke-width="4" stroke-linejoin="round"/>
<path d="M758.098 726.111L676.239 772.937L839.956 866.588L921.814 819.762L758.098 726.111Z" stroke="#191F28" stroke-width="4" stroke-linejoin="round"/>
<path d="M1462.08 772.937L1658.54 885.318L1855 772.937L1658.54 660.556L1462.08 772.937Z" stroke="#191F28" stroke-width="4" stroke-linejoin="round"/>
<path d="M1052.79 482.619L1183.76 557.539L1331.11 473.254L1200.13 398.333L1052.79 482.619Z" stroke="#191F28" stroke-width="4" stroke-linejoin="round"/>
<path d="M823.584 351.507L954.557 426.428L1101.9 342.142L970.929 267.222L823.584 351.507Z" stroke="#191F28" stroke-width="4" stroke-linejoin="round"/>
<path d="M1134.65 585.635L1462.08 772.936L1658.54 660.555L1331.11 473.254L1134.65 585.635Z" stroke="#191F28" stroke-width="4" stroke-linejoin="round"/>
<path d="M316.062 117.381L774.469 379.603L970.929 267.222L512.522 5L316.062 117.381Z" stroke="#191F28" stroke-width="4" stroke-linejoin="round"/>
<path d="M316.062 117.381L5 295.317L512.522 585.634L823.584 407.698L627.124 295.317L316.062 117.381Z" stroke="#191F28" stroke-width="4" stroke-linejoin="round"/>
<path d="M921.814 632.46L987.301 669.92L1069.16 623.095L1003.67 585.635L921.814 632.46Z" stroke="#191F28" stroke-width="4" stroke-linejoin="round"/>
<path d="M1134.65 1185L545.266 847.858L1003.67 585.635L1036.42 604.366L1101.9 566.905L1658.54 885.318L1134.65 1185Z" stroke="#191F28" stroke-width="4" stroke-linejoin="round"/>
<g filter="url(#filter0_f_3773_8396)">
<ellipse cx="1155" cy="918" rx="35" ry="10" fill="black" fill-opacity="0.25"/>
</g>
<path d="M1210 825.28C1210 855.81 1199.88 862.526 1155 918C1110.34 862.998 1100 855.81 1100 825.28C1100 794.75 1124.62 770 1155 770C1185.38 770 1210 794.75 1210 825.28Z" fill="url(#paint0_linear_3773_8396)"/>
<rect x="1117.07" y="787.465" width="75.8621" height="75.8974" rx="37.931" fill="white"/>
<path d="M1144.02 840.913L1143.98 836.229L1155.15 825.96C1158.05 823.188 1159.62 821.47 1159.62 818.999C1159.62 816.228 1157.53 814.509 1154.68 814.53C1151.75 814.509 1149.84 816.356 1149.86 819.343H1143.72C1143.7 813.263 1148.21 809.374 1154.76 809.374C1161.42 809.374 1165.85 813.177 1165.85 818.569C1165.85 822.114 1164.13 825.015 1157.73 830.815L1153 835.413V835.585H1166.28V840.913H1144.02Z" fill="#191F28"/>
<g filter="url(#filter1_f_3773_8396)">
<ellipse cx="715" cy="219" rx="35" ry="10" fill="black" fill-opacity="0.25"/>
</g>
<path d="M770 126.28C770 156.81 759.878 163.526 715 219C670.338 163.998 660 156.81 660 126.28C660 95.7495 684.624 71 715 71C745.376 71 770 95.7495 770 126.28Z" fill="url(#paint1_linear_3773_8396)"/>
<rect x="677.068" y="88.4648" width="75.8621" height="75.8974" rx="37.931" fill="white"/>
<path d="M720.542 141.913H714.054V116.948H713.882L706.749 121.417V115.702L714.44 110.804H720.542V141.913Z" fill="#191F28"/>
<path d="M633.898 11.2734C633.885 15.8828 632.57 19.7695 629.953 22.9336C627.349 26.0977 623.326 28.513 617.883 30.1797L616.398 27.1719C621.672 25.6484 625.415 23.3828 627.629 20.375L616.867 21.1953L616.281 18.1875L629.133 17.6406C629.536 16.6641 629.81 15.5443 629.953 14.2812H618.039V11.2734H633.898ZM621.867 31.2344H644.758V43.8906H621.867V31.2344ZM641.086 40.8828V34.2031H625.5V40.8828H641.086ZM633.781 18.4219H641.047V9.35938H644.758V29.4375H641.047V21.4688H633.781V18.4219ZM678.133 14.2031H673.016V23.0703H677.938V26.0781H652.273V23.0703H657.234V14.2031H652.117V11.1953H678.133V14.2031ZM649.109 29.75H681.141V32.7969H673.133V44.3203H669.461V32.7969H660.984V44.3203H657.195V32.7969H649.109V29.75ZM669.383 23.0703V14.2031H660.945V23.0703H669.383ZM711.898 44.3984H708.227V25.2969H701.273V22.25H708.227V9.32031H711.898V44.3984ZM684.32 12.4453H700.688V15.4531H688.07V22.25H699.203V25.2188H688.07V33.0312C691.208 33.0312 693.865 32.9661 696.039 32.8359C698.227 32.6927 700.427 32.4323 702.641 32.0547L703.031 35.0625C700.583 35.4531 698.161 35.7266 695.766 35.8828C693.37 36.026 690.466 36.1042 687.055 36.1172H684.32V12.4453ZM744.727 16.4297V16.8594C744.701 19.75 744.609 22.3021 744.453 24.5156C744.31 26.7161 743.971 29.2552 743.438 32.1328L739.805 31.7422C740.299 29.2031 740.625 26.8659 740.781 24.7305C740.938 22.582 741.016 20.3034 741.016 17.8945V16.4297V15.6875H719.57V12.6797H744.727V16.4297ZM716.289 36.5078H723.828V25.1797H727.539V36.5078H732.578V25.1797H736.211V36.5078H748.203V39.5938H716.289V36.5078ZM781.773 29.0078H773.531V33.0703H777.867V44.3203H774.117V36H753.414V33.0703H758.023V29.0078H749.859V26H781.773V29.0078ZM753.297 16.8594C753.297 15.4661 753.805 14.2617 754.82 13.2461C755.836 12.2174 757.281 11.4362 759.156 10.9023C761.044 10.3685 763.258 10.1016 765.797 10.1016C768.336 10.1016 770.543 10.3685 772.418 10.9023C774.293 11.4362 775.738 12.2174 776.754 13.2461C777.783 14.2617 778.297 15.4661 778.297 16.8594C778.297 18.2526 777.783 19.457 776.754 20.4727C775.738 21.4883 774.286 22.2695 772.398 22.8164C770.523 23.3503 768.323 23.6172 765.797 23.6172C763.258 23.6172 761.044 23.3503 759.156 22.8164C757.281 22.2695 755.836 21.4883 754.82 20.4727C753.805 19.457 753.297 18.2526 753.297 16.8594ZM757.125 16.8594C757.125 17.6667 757.47 18.3633 758.16 18.9492C758.85 19.5221 759.846 19.9648 761.148 20.2773C762.451 20.5768 764 20.7266 765.797 20.7266C767.581 20.7266 769.124 20.5768 770.426 20.2773C771.728 19.9648 772.724 19.5221 773.414 18.9492C774.117 18.3633 774.469 17.6667 774.469 16.8594C774.469 16.0651 774.124 15.3815 773.434 14.8086C772.743 14.2357 771.754 13.7995 770.465 13.5C769.176 13.1875 767.659 13.0312 765.914 13.0312C764.104 13.0312 762.535 13.181 761.207 13.4805C759.892 13.7799 758.883 14.2161 758.18 14.7891C757.477 15.362 757.125 16.0521 757.125 16.8594ZM769.898 33.0703V29.0078H761.734V33.0703H769.898ZM812.414 27.3281H808.742V9.32031H812.414V27.3281ZM783.547 24.2031C785.331 23.6042 786.887 22.7318 788.215 21.5859C789.556 20.4401 790.578 19.1185 791.281 17.6211C791.997 16.1237 792.362 14.5677 792.375 12.9531V10.2578H796.164V12.9531C796.164 14.5026 796.516 15.987 797.219 17.4062C797.922 18.8255 798.931 20.0755 800.246 21.1562C801.561 22.224 803.104 23.0312 804.875 23.5781L803.039 26.4688C801.008 25.8047 799.243 24.8151 797.746 23.5C796.249 22.1849 795.103 20.6289 794.309 18.832C793.501 20.7721 792.329 22.4648 790.793 23.9102C789.27 25.3555 787.479 26.4297 785.422 27.1328L783.547 24.2031ZM789.445 29.0078H812.453V37.7578H793.156V41H813.625V43.9688H789.562V34.9453H808.781V31.9375H789.445V29.0078Z" fill="#191F28"/>
<path d="M1365.38 617.625C1365.38 619.669 1365.36 621.44 1365.3 622.938C1365.27 624.422 1365.15 626.147 1364.97 628.113C1364.79 630.079 1364.5 632.221 1364.09 634.539L1360.3 634.188C1360.73 632.013 1361.05 629.962 1361.26 628.035C1361.47 626.108 1361.59 624.396 1361.63 622.898C1361.68 621.401 1361.71 619.643 1361.71 617.625V616.922H1341.09V613.875H1365.38V617.625ZM1337.65 637.273H1369.56V640.359H1337.65V637.273ZM1400.24 631.102H1396.53V610.359H1400.24V631.102ZM1372.98 612.43H1389.07V622.273H1376.69V626.492C1380.01 626.492 1382.87 626.421 1385.26 626.277C1387.66 626.134 1390.11 625.854 1392.62 625.438L1393.09 628.484C1390.48 628.888 1387.93 629.168 1385.46 629.324C1382.98 629.467 1380.11 629.539 1376.84 629.539H1375.98H1373.05V619.383H1385.4V615.398H1372.98V612.43ZM1377.23 632.859H1400.24V644.891H1377.23V632.859ZM1396.61 641.883V635.828H1380.91V641.883H1396.61ZM1415.38 618.016C1415.38 619.344 1415.65 620.626 1416.2 621.863C1416.74 623.1 1417.54 624.201 1418.58 625.164C1419.63 626.128 1420.88 626.87 1422.33 627.391L1420.57 630.203C1418.96 629.578 1417.57 628.699 1416.41 627.566C1415.25 626.434 1414.35 625.112 1413.71 623.602C1413.08 625.229 1412.17 626.668 1411 627.918C1409.83 629.155 1408.41 630.112 1406.74 630.789L1404.98 628.055C1406.43 627.469 1407.67 626.661 1408.7 625.633C1409.72 624.604 1410.51 623.432 1411.04 622.117C1411.57 620.802 1411.85 619.435 1411.86 618.016V617.703H1405.77V614.734H1411.86V610.711H1415.38V614.734H1421.39V617.703H1415.38V618.016ZM1410.84 633.523H1434.63V645.32H1430.96V636.531H1410.84V633.523ZM1423.58 610.945H1427.13V619.5H1431.12V610.359H1434.63V631.766H1431.12V622.547H1427.13V631.609H1423.58V610.945ZM1454.57 632.117C1456.97 632.117 1459.03 632.378 1460.76 632.898C1462.51 633.419 1463.84 634.174 1464.77 635.164C1465.7 636.141 1466.17 637.312 1466.17 638.68C1466.17 640.06 1465.7 641.245 1464.77 642.234C1463.84 643.237 1462.51 643.999 1460.76 644.52C1459.03 645.053 1456.97 645.32 1454.57 645.32C1452.15 645.32 1450.05 645.053 1448.28 644.52C1446.52 643.999 1445.17 643.237 1444.22 642.234C1443.28 641.245 1442.81 640.06 1442.81 638.68C1442.81 637.312 1443.28 636.141 1444.22 635.164C1445.17 634.174 1446.52 633.419 1448.28 632.898C1450.05 632.378 1452.15 632.117 1454.57 632.117ZM1439.73 612.508H1443.36V617.547H1452.54V612.508H1456.21V628.758H1439.73V612.508ZM1452.54 625.789V620.477H1443.36V625.789H1452.54ZM1446.52 638.68C1446.51 639.852 1447.21 640.757 1448.63 641.395C1450.05 642.033 1452.03 642.352 1454.57 642.352C1457.1 642.352 1459.06 642.033 1460.45 641.395C1461.86 640.757 1462.55 639.852 1462.54 638.68C1462.55 637.521 1461.86 636.629 1460.45 636.004C1459.06 635.366 1457.1 635.047 1454.57 635.047C1452.03 635.047 1450.05 635.366 1448.63 636.004C1447.21 636.629 1446.51 637.521 1446.52 638.68ZM1462.15 610.32H1465.86V618.875H1470.94V622.039H1465.86V631.219H1462.15V610.32Z" fill="#191F28"/>
<path d="M860.378 741.75H864.409V744.188H860.378V751.188H857.378V734.656H860.378V741.75ZM839.534 736.719H852.034V739.125H842.472V746.75C845.389 746.729 847.722 746.661 849.472 746.547C851.222 746.422 852.941 746.188 854.628 745.844L854.909 748.25C853.118 748.615 851.279 748.859 849.394 748.984C847.519 749.099 844.972 749.156 841.753 749.156H839.534V736.719ZM841.909 757.156C841.909 756.031 842.29 755.062 843.05 754.25C843.81 753.427 844.894 752.802 846.3 752.375C847.717 751.938 849.389 751.719 851.316 751.719C853.222 751.719 854.868 751.938 856.253 752.375C857.649 752.802 858.722 753.427 859.472 754.25C860.222 755.062 860.597 756.031 860.597 757.156C860.597 758.292 860.222 759.266 859.472 760.078C858.722 760.901 857.649 761.526 856.253 761.953C854.857 762.38 853.211 762.594 851.316 762.594C849.389 762.594 847.717 762.38 846.3 761.953C844.894 761.526 843.81 760.901 843.05 760.078C842.29 759.266 841.909 758.292 841.909 757.156ZM844.847 757.156C844.847 757.792 845.097 758.339 845.597 758.797C846.107 759.255 846.842 759.609 847.8 759.859C848.769 760.099 849.915 760.219 851.237 760.219C852.571 760.219 853.727 760.099 854.706 759.859C855.685 759.62 856.435 759.271 856.956 758.812C857.487 758.354 857.753 757.802 857.753 757.156C857.753 756.521 857.493 755.979 856.972 755.531C856.461 755.073 855.727 754.724 854.769 754.484C853.821 754.245 852.696 754.125 851.394 754.125C849.331 754.125 847.722 754.391 846.566 754.922C845.409 755.443 844.836 756.188 844.847 757.156ZM875.578 739.688C875.578 740.885 875.859 742.047 876.422 743.172C876.995 744.286 877.807 745.276 878.859 746.141C879.922 746.995 881.161 747.646 882.578 748.094L881.047 750.406C879.453 749.875 878.057 749.083 876.859 748.031C875.672 746.979 874.76 745.745 874.125 744.328C873.49 745.859 872.562 747.198 871.344 748.344C870.125 749.49 868.693 750.354 867.047 750.938L865.516 748.656C866.943 748.156 868.188 747.448 869.25 746.531C870.312 745.604 871.13 744.547 871.703 743.359C872.286 742.172 872.578 740.948 872.578 739.688V738.906H866.297V736.5H881.734V738.906H875.578V739.688ZM869.453 752.969H888.422V762.656H885.453V755.375H869.453V752.969ZM885.453 734.656H888.422V751.562H885.453V734.656ZM915.247 749.062H912.309V734.656H915.247V749.062ZM892.153 746.562C893.58 746.083 894.825 745.385 895.888 744.469C896.96 743.552 897.778 742.495 898.341 741.297C898.914 740.099 899.205 738.854 899.216 737.562V735.406H902.247V737.562C902.247 738.802 902.528 739.99 903.091 741.125C903.653 742.26 904.46 743.26 905.513 744.125C906.565 744.979 907.799 745.625 909.216 746.062L907.747 748.375C906.122 747.844 904.71 747.052 903.513 746C902.315 744.948 901.398 743.703 900.763 742.266C900.117 743.818 899.179 745.172 897.95 746.328C896.731 747.484 895.299 748.344 893.653 748.906L892.153 746.562ZM896.872 750.406H915.278V757.406H899.841V760H916.216V762.375H896.966V755.156H912.341V752.75H896.872V750.406Z" fill="#191F28"/>
<path d="M921.219 344.375H925.438V346.875H921.219V360.656H918.25V332.656H921.219V344.375ZM898.938 353.031C902.115 353.031 904.594 353.005 906.375 352.953V350.109C905.323 349.953 904.401 349.646 903.609 349.188C902.828 348.729 902.224 348.146 901.797 347.438C901.38 346.719 901.177 345.917 901.188 345.031C901.177 343.99 901.448 343.073 902 342.281C902.562 341.49 903.349 340.875 904.359 340.438C905.38 340 906.552 339.781 907.875 339.781C909.188 339.781 910.354 340 911.375 340.438C912.396 340.875 913.193 341.49 913.766 342.281C914.339 343.073 914.625 343.99 914.625 345.031C914.625 345.917 914.406 346.719 913.969 347.438C913.531 348.146 912.911 348.734 912.109 349.203C911.318 349.661 910.396 349.964 909.344 350.109V352.844C912.094 352.708 914.531 352.49 916.656 352.188L916.844 354.375C914.312 354.823 911.693 355.125 908.984 355.281C906.286 355.427 903.443 355.5 900.453 355.5H899.406L898.938 353.031ZM899.469 335.969H906.375V332.719H909.344V335.969H916.25V338.344H899.469V335.969ZM903.969 345.031C903.969 345.615 904.13 346.125 904.453 346.562C904.776 346.99 905.224 347.323 905.797 347.562C906.38 347.792 907.057 347.906 907.828 347.906C909.026 347.906 909.979 347.651 910.688 347.141C911.406 346.63 911.771 345.927 911.781 345.031C911.781 344.438 911.615 343.922 911.281 343.484C910.958 343.036 910.5 342.693 909.906 342.453C909.323 342.214 908.646 342.094 907.875 342.094C907.094 342.094 906.406 342.214 905.812 342.453C905.229 342.693 904.776 343.036 904.453 343.484C904.13 343.922 903.969 344.438 903.969 345.031ZM935.919 337.812C935.908 339 936.169 340.135 936.7 341.219C937.242 342.292 938.018 343.245 939.028 344.078C940.039 344.901 941.242 345.531 942.638 345.969L941.231 348.281C939.658 347.781 938.294 347.031 937.138 346.031C935.992 345.031 935.106 343.854 934.481 342.5C933.867 344.052 932.955 345.406 931.747 346.562C930.539 347.708 929.106 348.573 927.45 349.156L925.919 346.781C927.346 346.312 928.591 345.625 929.653 344.719C930.716 343.812 931.528 342.766 932.091 341.578C932.653 340.391 932.94 339.146 932.95 337.844V337.062H926.794V334.656H941.95V337.062H935.919V337.812ZM929.7 355.344C929.7 354.26 930.075 353.328 930.825 352.547C931.585 351.766 932.669 351.172 934.075 350.766C935.492 350.359 937.169 350.156 939.106 350.156C941.023 350.156 942.674 350.359 944.059 350.766C945.455 351.172 946.523 351.766 947.263 352.547C948.013 353.328 948.388 354.26 948.388 355.344C948.388 356.448 948.013 357.391 947.263 358.172C946.523 358.964 945.455 359.562 944.059 359.969C942.674 360.385 941.023 360.594 939.106 360.594C937.169 360.594 935.492 360.385 934.075 359.969C932.669 359.562 931.585 358.964 930.825 358.172C930.075 357.391 929.7 356.448 929.7 355.344ZM932.669 355.344C932.658 356.271 933.21 356.99 934.325 357.5C935.45 358 937.013 358.25 939.013 358.25C941.065 358.25 942.658 358 943.794 357.5C944.929 357 945.492 356.281 945.481 355.344C945.492 354.438 944.945 353.74 943.841 353.25C942.736 352.75 941.19 352.5 939.2 352.5C937.127 352.5 935.518 352.745 934.372 353.234C933.226 353.724 932.658 354.427 932.669 355.344ZM945.169 332.656H948.138V339.594H952.2V342.031H948.138V349.469H945.169V332.656ZM976.181 347.062H973.244V332.656H976.181V347.062ZM953.088 344.562C954.515 344.083 955.759 343.385 956.822 342.469C957.895 341.552 958.713 340.495 959.275 339.297C959.848 338.099 960.14 336.854 960.15 335.562V333.406H963.181V335.562C963.181 336.802 963.463 337.99 964.025 339.125C964.588 340.26 965.395 341.26 966.447 342.125C967.499 342.979 968.733 343.625 970.15 344.062L968.681 346.375C967.056 345.844 965.645 345.052 964.447 344C963.249 342.948 962.332 341.703 961.697 340.266C961.051 341.818 960.114 343.172 958.884 344.328C957.666 345.484 956.233 346.344 954.588 346.906L953.088 344.562ZM957.806 348.406H976.213V355.406H960.775V358H977.15V360.375H957.9V353.156H973.275V350.75H957.806V348.406ZM981.537 349.375C981.548 346.49 981.944 343.812 982.725 341.344C983.517 338.865 984.662 336.552 986.162 334.406H989.225C988.496 335.458 987.808 336.812 987.162 338.469C986.517 340.115 985.996 341.896 985.6 343.812C985.204 345.729 985.006 347.583 985.006 349.375C985.006 351.167 985.204 353.026 985.6 354.953C985.996 356.87 986.517 358.656 987.162 360.312C987.808 361.969 988.496 363.323 989.225 364.375H986.162C984.662 362.219 983.517 359.901 982.725 357.422C981.944 354.943 981.548 352.26 981.537 349.375ZM998.081 334.75C999.352 334.76 1000.49 335.115 1001.5 335.812C1002.52 336.5 1003.35 337.479 1003.97 338.75H1010.89V332.656H1013.83V360.719H1010.89V349.969H1004.18C1003.57 351.385 1002.74 352.484 1001.68 353.266C1000.62 354.036 999.425 354.417 998.081 354.406C996.696 354.406 995.461 354.005 994.378 353.203C993.305 352.401 992.467 351.255 991.863 349.766C991.269 348.276 990.977 346.542 990.988 344.562C990.977 342.604 991.269 340.885 991.863 339.406C992.467 337.917 993.305 336.771 994.378 335.969C995.461 335.156 996.696 334.75 998.081 334.75ZM993.8 344.562C993.8 346.021 993.977 347.292 994.331 348.375C994.696 349.458 995.201 350.292 995.847 350.875C996.493 351.458 997.238 351.75 998.081 351.75C998.925 351.75 999.67 351.458 1000.32 350.875C1000.96 350.292 1001.46 349.458 1001.82 348.375C1002.18 347.292 1002.36 346.021 1002.36 344.562C1002.36 343.125 1002.18 341.87 1001.82 340.797C1001.45 339.714 1000.95 338.88 1000.3 338.297C999.665 337.703 998.925 337.406 998.081 337.406C997.238 337.406 996.493 337.703 995.847 338.297C995.211 338.88 994.711 339.714 994.347 340.797C993.982 341.87 993.8 343.125 993.8 344.562ZM1004.82 341.188C1005.06 342.312 1005.18 343.438 1005.18 344.562C1005.18 345.615 1005.08 346.604 1004.89 347.531H1010.89V341.188H1004.82ZM1025.03 349.375C1025.02 352.26 1024.62 354.943 1023.83 357.422C1023.05 359.901 1021.91 362.219 1020.41 364.375H1017.34C1018.07 363.323 1018.76 361.969 1019.41 360.312C1020.05 358.656 1020.57 356.87 1020.97 354.953C1021.36 353.026 1021.56 351.167 1021.56 349.375C1021.56 347.583 1021.36 345.729 1020.97 343.812C1020.57 341.896 1020.05 340.115 1019.41 338.469C1018.76 336.812 1018.07 335.458 1017.34 334.406H1020.41C1021.91 336.552 1023.05 338.865 1023.83 341.344C1024.62 343.812 1025.02 346.49 1025.03 349.375Z" fill="#191F28"/>
<path d="M1150.22 475.375H1154.44V477.875H1150.22V491.656H1147.25V463.656H1150.22V475.375ZM1127.94 484.031C1131.11 484.031 1133.59 484.005 1135.38 483.953V481.109C1134.32 480.953 1133.4 480.646 1132.61 480.188C1131.83 479.729 1131.22 479.146 1130.8 478.438C1130.38 477.719 1130.18 476.917 1130.19 476.031C1130.18 474.99 1130.45 474.073 1131 473.281C1131.56 472.49 1132.35 471.875 1133.36 471.438C1134.38 471 1135.55 470.781 1136.88 470.781C1138.19 470.781 1139.35 471 1140.38 471.438C1141.4 471.875 1142.19 472.49 1142.77 473.281C1143.34 474.073 1143.62 474.99 1143.62 476.031C1143.62 476.917 1143.41 477.719 1142.97 478.438C1142.53 479.146 1141.91 479.734 1141.11 480.203C1140.32 480.661 1139.4 480.964 1138.34 481.109V483.844C1141.09 483.708 1143.53 483.49 1145.66 483.188L1145.84 485.375C1143.31 485.823 1140.69 486.125 1137.98 486.281C1135.29 486.427 1132.44 486.5 1129.45 486.5H1128.41L1127.94 484.031ZM1128.47 466.969H1135.38V463.719H1138.34V466.969H1145.25V469.344H1128.47V466.969ZM1132.97 476.031C1132.97 476.615 1133.13 477.125 1133.45 477.562C1133.78 477.99 1134.22 478.323 1134.8 478.562C1135.38 478.792 1136.06 478.906 1136.83 478.906C1138.03 478.906 1138.98 478.651 1139.69 478.141C1140.41 477.63 1140.77 476.927 1140.78 476.031C1140.78 475.438 1140.61 474.922 1140.28 474.484C1139.96 474.036 1139.5 473.693 1138.91 473.453C1138.32 473.214 1137.65 473.094 1136.88 473.094C1136.09 473.094 1135.41 473.214 1134.81 473.453C1134.23 473.693 1133.78 474.036 1133.45 474.484C1133.13 474.922 1132.97 475.438 1132.97 476.031ZM1164.92 468.812C1164.91 470 1165.17 471.135 1165.7 472.219C1166.24 473.292 1167.02 474.245 1168.03 475.078C1169.04 475.901 1170.24 476.531 1171.64 476.969L1170.23 479.281C1168.66 478.781 1167.29 478.031 1166.14 477.031C1164.99 476.031 1164.11 474.854 1163.48 473.5C1162.87 475.052 1161.96 476.406 1160.75 477.562C1159.54 478.708 1158.11 479.573 1156.45 480.156L1154.92 477.781C1156.35 477.312 1157.59 476.625 1158.65 475.719C1159.72 474.812 1160.53 473.766 1161.09 472.578C1161.65 471.391 1161.94 470.146 1161.95 468.844V468.062H1155.79V465.656H1170.95V468.062H1164.92V468.812ZM1158.7 486.344C1158.7 485.26 1159.08 484.328 1159.83 483.547C1160.59 482.766 1161.67 482.172 1163.08 481.766C1164.49 481.359 1166.17 481.156 1168.11 481.156C1170.02 481.156 1171.67 481.359 1173.06 481.766C1174.46 482.172 1175.52 482.766 1176.26 483.547C1177.01 484.328 1177.39 485.26 1177.39 486.344C1177.39 487.448 1177.01 488.391 1176.26 489.172C1175.52 489.964 1174.46 490.562 1173.06 490.969C1171.67 491.385 1170.02 491.594 1168.11 491.594C1166.17 491.594 1164.49 491.385 1163.08 490.969C1161.67 490.562 1160.59 489.964 1159.83 489.172C1159.08 488.391 1158.7 487.448 1158.7 486.344ZM1161.67 486.344C1161.66 487.271 1162.21 487.99 1163.33 488.5C1164.45 489 1166.01 489.25 1168.01 489.25C1170.06 489.25 1171.66 489 1172.79 488.5C1173.93 488 1174.49 487.281 1174.48 486.344C1174.49 485.438 1173.94 484.74 1172.84 484.25C1171.74 483.75 1170.19 483.5 1168.2 483.5C1166.13 483.5 1164.52 483.745 1163.37 484.234C1162.23 484.724 1161.66 485.427 1161.67 486.344ZM1174.17 463.656H1177.14V470.594H1181.2V473.031H1177.14V480.469H1174.17V463.656ZM1205.18 478.062H1202.24V463.656H1205.18V478.062ZM1182.09 475.562C1183.51 475.083 1184.76 474.385 1185.82 473.469C1186.89 472.552 1187.71 471.495 1188.28 470.297C1188.85 469.099 1189.14 467.854 1189.15 466.562V464.406H1192.18V466.562C1192.18 467.802 1192.46 468.99 1193.03 470.125C1193.59 471.26 1194.39 472.26 1195.45 473.125C1196.5 473.979 1197.73 474.625 1199.15 475.062L1197.68 477.375C1196.06 476.844 1194.64 476.052 1193.45 475C1192.25 473.948 1191.33 472.703 1190.7 471.266C1190.05 472.818 1189.11 474.172 1187.88 475.328C1186.67 476.484 1185.23 477.344 1183.59 477.906L1182.09 475.562ZM1186.81 479.406H1205.21V486.406H1189.78V489H1206.15V491.375H1186.9V484.156H1202.28V481.75H1186.81V479.406ZM1210.54 480.375C1210.55 477.49 1210.94 474.812 1211.72 472.344C1212.52 469.865 1213.66 467.552 1215.16 465.406H1218.22C1217.5 466.458 1216.81 467.812 1216.16 469.469C1215.52 471.115 1215 472.896 1214.6 474.812C1214.2 476.729 1214.01 478.583 1214.01 480.375C1214.01 482.167 1214.2 484.026 1214.6 485.953C1215 487.87 1215.52 489.656 1216.16 491.312C1216.81 492.969 1217.5 494.323 1218.22 495.375H1215.16C1213.66 493.219 1212.52 490.901 1211.72 488.422C1210.94 485.943 1210.55 483.26 1210.54 480.375ZM1241.49 469.906H1245.58V472.375H1241.49V479.469H1238.52V463.688H1241.49V469.906ZM1220.77 465.062H1223.74V475.094C1227.87 475.062 1231.89 474.656 1235.8 473.875L1236.18 476.312C1233.96 476.76 1231.77 477.078 1229.63 477.266C1227.49 477.453 1225.3 477.552 1223.05 477.562H1220.77V465.062ZM1223.55 480.938H1241.49V491.281H1223.55V480.938ZM1238.61 488.906V483.25H1226.46V488.906H1238.61ZM1254.03 480.375C1254.02 483.26 1253.62 485.943 1252.83 488.422C1252.05 490.901 1250.91 493.219 1249.41 495.375H1246.34C1247.07 494.323 1247.76 492.969 1248.41 491.312C1249.05 489.656 1249.57 487.87 1249.97 485.953C1250.36 484.026 1250.56 482.167 1250.56 480.375C1250.56 478.583 1250.36 476.729 1249.97 474.812C1249.57 472.896 1249.05 471.115 1248.41 469.469C1247.76 467.812 1247.07 466.458 1246.34 465.406H1249.41C1250.91 467.552 1252.05 469.865 1252.83 472.344C1253.62 474.812 1254.02 477.49 1254.03 480.375Z" fill="#191F28"/>
<path d="M771.941 784.344V784.703C771.92 786.068 771.862 787.359 771.769 788.578C771.685 789.786 771.503 791.135 771.222 792.625L768.284 792.344C768.555 790.958 768.737 789.708 768.831 788.594C768.935 787.479 768.998 786.354 769.019 785.219H757.816V782.781H771.941V784.344ZM756.128 795.031C758.118 795.031 760.024 795.01 761.847 794.969V789.062H764.784V794.875C768.264 794.729 771.232 794.479 773.691 794.125L773.878 796.281C771.284 796.74 768.545 797.047 765.659 797.203C762.774 797.349 759.691 797.427 756.409 797.438L756.128 795.031ZM760.378 799.781H763.347V805.656H779.409V808.062H760.378V799.781ZM775.472 780.656H778.503V789.562H782.347V792.062H778.503V801.688H775.472V780.656ZM806.453 808.719H803.484V780.656H806.453V808.719ZM784.766 783.188H797.891V793.406H787.828V799.531C790.255 799.521 792.5 799.443 794.562 799.297C796.635 799.151 798.786 798.896 801.016 798.531L801.297 800.969C798.974 801.354 796.719 801.62 794.531 801.766C792.344 801.911 789.891 801.99 787.172 802H784.797V791.031H794.859V785.594H784.766V783.188ZM833.247 795.062H830.309V780.656H833.247V795.062ZM810.153 792.562C811.58 792.083 812.825 791.385 813.888 790.469C814.96 789.552 815.778 788.495 816.341 787.297C816.914 786.099 817.205 784.854 817.216 783.562V781.406H820.247V783.562C820.247 784.802 820.528 785.99 821.091 787.125C821.653 788.26 822.46 789.26 823.513 790.125C824.565 790.979 825.799 791.625 827.216 792.062L825.747 794.375C824.122 793.844 822.71 793.052 821.513 792C820.315 790.948 819.398 789.703 818.763 788.266C818.117 789.818 817.179 791.172 815.95 792.328C814.731 793.484 813.299 794.344 811.653 794.906L810.153 792.562ZM814.872 796.406H833.278V803.406H817.841V806H834.216V808.375H814.966V801.156H830.341V798.75H814.872V796.406Z" fill="#191F28"/>
<path d="M1064.07 710.938C1065.65 710.938 1067.07 711.367 1068.33 712.227C1069.59 713.086 1070.61 714.303 1071.39 715.879C1072.19 717.454 1072.68 719.31 1072.86 721.445H1080.09V708.32H1083.76V743.398H1080.09V724.453H1072.9C1072.77 726.706 1072.31 728.665 1071.53 730.332C1070.75 731.999 1069.71 733.281 1068.43 734.18C1067.14 735.065 1065.68 735.508 1064.07 735.508C1062.34 735.508 1060.8 735.007 1059.44 734.004C1058.1 733.001 1057.05 731.569 1056.3 729.707C1055.55 727.845 1055.19 725.677 1055.2 723.203C1055.19 720.755 1055.55 718.607 1056.3 716.758C1057.05 714.896 1058.1 713.464 1059.44 712.461C1060.8 711.445 1062.34 710.938 1064.07 710.938ZM1058.72 723.203C1058.72 725.026 1058.94 726.615 1059.38 727.969C1059.84 729.323 1060.47 730.365 1061.28 731.094C1062.08 731.823 1063.02 732.188 1064.07 732.188C1065.12 732.188 1066.06 731.823 1066.86 731.094C1067.67 730.365 1068.3 729.323 1068.74 727.969C1069.19 726.615 1069.42 725.026 1069.42 723.203C1069.42 721.406 1069.19 719.837 1068.74 718.496C1068.28 717.142 1067.65 716.1 1066.84 715.371C1066.05 714.629 1065.12 714.258 1064.07 714.258C1063.02 714.258 1062.08 714.629 1061.28 715.371C1060.48 716.1 1059.86 717.142 1059.4 718.496C1058.95 719.837 1058.72 721.406 1058.72 723.203ZM1117.13 734.102H1113.46V708.359H1117.13V734.102ZM1089.91 710.781H1106V721.211H1093.62V726.25C1097.11 726.224 1100.04 726.133 1102.41 725.977C1104.78 725.82 1107.18 725.521 1109.63 725.078L1110.02 728.125C1107.42 728.581 1104.85 728.887 1102.33 729.043C1099.8 729.199 1096.66 729.284 1092.91 729.297H1089.98V718.398H1102.33V713.75H1089.91V710.781ZM1094.01 732.07H1097.72V739.57H1118.11V742.578H1094.01V732.07ZM1150.7 743.398H1146.99V708.32H1150.7V743.398ZM1122.93 723.203C1122.93 720.755 1123.31 718.607 1124.08 716.758C1124.85 714.896 1125.92 713.464 1127.29 712.461C1128.67 711.445 1130.23 710.938 1131.99 710.938C1133.72 710.938 1135.27 711.445 1136.64 712.461C1138.01 713.464 1139.08 714.896 1139.84 716.758C1140.62 718.607 1141.02 720.755 1141.02 723.203C1141.02 725.677 1140.62 727.845 1139.84 729.707C1139.08 731.569 1138.01 733.001 1136.64 734.004C1135.27 735.007 1133.72 735.508 1131.99 735.508C1130.23 735.508 1128.67 735.007 1127.29 734.004C1125.92 733.001 1124.85 731.569 1124.08 729.707C1123.31 727.845 1122.93 725.677 1122.93 723.203ZM1126.52 723.203C1126.52 725.026 1126.75 726.615 1127.21 727.969C1127.66 729.323 1128.3 730.365 1129.12 731.094C1129.95 731.823 1130.91 732.188 1131.99 732.188C1133.06 732.188 1134 731.823 1134.82 731.094C1135.64 730.365 1136.28 729.323 1136.74 727.969C1137.19 726.615 1137.42 725.026 1137.42 723.203C1137.42 721.406 1137.19 719.837 1136.74 718.496C1136.28 717.142 1135.64 716.1 1134.82 715.371C1134 714.629 1133.06 714.258 1131.99 714.258C1130.91 714.258 1129.95 714.629 1129.12 715.371C1128.3 716.1 1127.66 717.142 1127.21 718.496C1126.75 719.837 1126.52 721.406 1126.52 723.203ZM1167.48 718.633C1167.48 720.469 1167.85 722.331 1168.61 724.219C1169.36 726.094 1170.42 727.799 1171.77 729.336C1173.14 730.859 1174.69 732.031 1176.42 732.852L1174.31 735.742C1172.39 734.818 1170.67 733.438 1169.16 731.602C1167.65 729.753 1166.49 727.669 1165.68 725.352C1164.87 727.865 1163.68 730.13 1162.11 732.148C1160.54 734.154 1158.78 735.651 1156.81 736.641L1154.62 733.711C1156.36 732.878 1157.92 731.654 1159.31 730.039C1160.72 728.411 1161.82 726.595 1162.61 724.59C1163.41 722.572 1163.8 720.586 1163.8 718.633V714.922H1155.91V711.836H1175.09V714.922H1167.48V718.633ZM1178.84 708.32H1182.55V722.188H1188.18V725.312H1182.55V743.32H1178.84V708.32ZM1220.89 739.141H1188.86V736.016H1197.61V729.844H1192.77V718.711H1213.31V713.828H1192.69V710.781H1216.98V721.719H1196.44V726.797H1217.8V729.844H1212.49V736.016H1220.89V739.141ZM1208.86 736.016V729.844H1201.2V736.016H1208.86ZM1251.41 726.328H1247.74V708.32H1251.41V726.328ZM1222.55 723.203C1224.33 722.604 1225.89 721.732 1227.21 720.586C1228.56 719.44 1229.58 718.118 1230.28 716.621C1231 715.124 1231.36 713.568 1231.38 711.953V709.258H1235.16V711.953C1235.16 713.503 1235.52 714.987 1236.22 716.406C1236.92 717.826 1237.93 719.076 1239.25 720.156C1240.56 721.224 1242.1 722.031 1243.88 722.578L1242.04 725.469C1240.01 724.805 1238.24 723.815 1236.75 722.5C1235.25 721.185 1234.1 719.629 1233.31 717.832C1232.5 719.772 1231.33 721.465 1229.79 722.91C1228.27 724.355 1226.48 725.43 1224.42 726.133L1222.55 723.203ZM1228.45 728.008H1251.45V736.758H1232.16V740H1252.62V742.969H1228.56V733.945H1247.78V730.938H1228.45V728.008Z" fill="#191F28"/>
<path d="M972.612 616.375H986.8V619.344H976.05V626.188H986.05V629.125H976.05V636.031H986.925V639H972.612V616.375ZM991.281 642.406H988.312L995.594 615.312H998.562L991.281 642.406ZM1008.89 634.781H1009.14L1015.42 616.375H1019.14L1010.98 639H1007.01L998.887 616.375H1002.61L1008.89 634.781Z" fill="#191F28"/>
<path d="M1614.63 788.398H1610.92V753.32H1614.63V788.398ZM1586.86 768.203C1586.86 765.755 1587.24 763.607 1588.01 761.758C1588.78 759.896 1589.85 758.464 1591.21 757.461C1592.6 756.445 1594.16 755.938 1595.92 755.938C1597.65 755.938 1599.2 756.445 1600.57 757.461C1601.94 758.464 1603.01 759.896 1603.77 761.758C1604.55 763.607 1604.95 765.755 1604.95 768.203C1604.95 770.677 1604.55 772.845 1603.77 774.707C1603.01 776.569 1601.94 778.001 1600.57 779.004C1599.2 780.007 1597.65 780.508 1595.92 780.508C1594.16 780.508 1592.6 780.007 1591.21 779.004C1589.85 778.001 1588.78 776.569 1588.01 774.707C1587.24 772.845 1586.86 770.677 1586.86 768.203ZM1590.45 768.203C1590.45 770.026 1590.68 771.615 1591.14 772.969C1591.59 774.323 1592.23 775.365 1593.05 776.094C1593.88 776.823 1594.84 777.188 1595.92 777.188C1596.99 777.188 1597.93 776.823 1598.75 776.094C1599.57 775.365 1600.21 774.323 1600.67 772.969C1601.12 771.615 1601.35 770.026 1601.35 768.203C1601.35 766.406 1601.12 764.837 1600.67 763.496C1600.21 762.142 1599.57 761.1 1598.75 760.371C1597.93 759.629 1596.99 759.258 1595.92 759.258C1594.84 759.258 1593.88 759.629 1593.05 760.371C1592.23 761.1 1591.59 762.142 1591.14 763.496C1590.68 764.837 1590.45 766.406 1590.45 768.203ZM1628.59 755.938C1630.33 755.938 1631.87 756.445 1633.22 757.461C1634.59 758.464 1635.66 759.896 1636.43 761.758C1637.19 763.607 1637.58 765.755 1637.58 768.203C1637.58 770.677 1637.19 772.845 1636.43 774.707C1635.66 776.569 1634.6 778.001 1633.24 779.004C1631.89 780.007 1630.34 780.508 1628.59 780.508C1626.85 780.508 1625.3 780.007 1623.95 779.004C1622.59 778.001 1621.54 776.569 1620.78 774.707C1620.03 772.845 1619.65 770.677 1619.65 768.203C1619.65 765.755 1620.03 763.607 1620.78 761.758C1621.54 759.896 1622.59 758.464 1623.95 757.461C1625.3 756.445 1626.85 755.938 1628.59 755.938ZM1623.2 768.203C1623.2 770.026 1623.42 771.615 1623.87 772.969C1624.32 774.323 1624.96 775.365 1625.78 776.094C1626.6 776.823 1627.54 777.188 1628.59 777.188C1629.67 777.188 1630.62 776.829 1631.45 776.113C1632.27 775.384 1632.9 774.342 1633.34 772.988C1633.8 771.621 1634.02 770.026 1634.02 768.203C1634.02 766.393 1633.8 764.818 1633.34 763.477C1632.9 762.122 1632.27 761.081 1631.45 760.352C1630.62 759.622 1629.67 759.258 1628.59 759.258C1627.54 759.258 1626.6 759.629 1625.78 760.371C1624.96 761.1 1624.32 762.142 1623.87 763.496C1623.42 764.837 1623.2 766.406 1623.2 768.203ZM1642.77 753.32H1646.48V761.875H1651.91V765.039H1646.48V772.305H1651.91V775.352H1646.48V788.32H1642.77V753.32ZM1681.89 788.32H1678.14V753.32H1681.89V788.32ZM1653.14 778.945C1657.72 776.758 1661.21 774.095 1663.59 770.957C1665.97 767.819 1667.35 764.18 1667.71 760.039H1654.82V757.07H1671.46C1671.46 762.487 1670.17 767.298 1667.57 771.504C1665 775.71 1660.84 779.193 1655.09 781.953L1653.14 778.945ZM1702.57 775.117C1704.97 775.117 1707.03 775.378 1708.76 775.898C1710.51 776.419 1711.84 777.174 1712.77 778.164C1713.7 779.141 1714.17 780.312 1714.17 781.68C1714.17 783.06 1713.7 784.245 1712.77 785.234C1711.84 786.237 1710.51 786.999 1708.76 787.52C1707.03 788.053 1704.97 788.32 1702.57 788.32C1700.15 788.32 1698.05 788.053 1696.28 787.52C1694.52 786.999 1693.17 786.237 1692.22 785.234C1691.28 784.245 1690.81 783.06 1690.81 781.68C1690.81 780.312 1691.28 779.141 1692.22 778.164C1693.17 777.174 1694.52 776.419 1696.28 775.898C1698.05 775.378 1700.15 775.117 1702.57 775.117ZM1687.73 755.508H1691.36V760.547H1700.54V755.508H1704.21V771.758H1687.73V755.508ZM1700.54 768.789V763.477H1691.36V768.789H1700.54ZM1694.52 781.68C1694.51 782.852 1695.21 783.757 1696.63 784.395C1698.05 785.033 1700.03 785.352 1702.57 785.352C1705.1 785.352 1707.06 785.033 1708.45 784.395C1709.86 783.757 1710.55 782.852 1710.54 781.68C1710.55 780.521 1709.86 779.629 1708.45 779.004C1707.06 778.366 1705.1 778.047 1702.57 778.047C1700.03 778.047 1698.05 778.366 1696.63 779.004C1695.21 779.629 1694.51 780.521 1694.52 781.68ZM1710.15 753.32H1713.86V761.875H1718.94V765.039H1713.86V774.219H1710.15V753.32Z" fill="#191F28"/>
<defs>
<filter id="filter0_f_3773_8396" x="1115" y="903" width="80" height="30" filterUnits="userSpaceOnUse" color-interpolation-filters="sRGB">
<feFlood flood-opacity="0" result="BackgroundImageFix"/>
<feBlend mode="normal" in="SourceGraphic" in2="BackgroundImageFix" result="shape"/>
<feGaussianBlur stdDeviation="2.5" result="effect1_foregroundBlur_3773_8396"/>
</filter>
<filter id="filter1_f_3773_8396" x="675" y="204" width="80" height="30" filterUnits="userSpaceOnUse" color-interpolation-filters="sRGB">
<feFlood flood-opacity="0" result="BackgroundImageFix"/>
<feBlend mode="normal" in="SourceGraphic" in2="BackgroundImageFix" result="shape"/>
<feGaussianBlur stdDeviation="2.5" result="effect1_foregroundBlur_3773_8396"/>
</filter>
<linearGradient id="paint0_linear_3773_8396" x1="1186.7" y1="785.156" x2="1124.25" y2="892.663" gradientUnits="userSpaceOnUse">
<stop offset="0.144416" stop-color="#C41818"/>
<stop offset="1" stop-color="#072B24"/>
</linearGradient>
<linearGradient id="paint1_linear_3773_8396" x1="746.703" y1="86.1559" x2="684.25" y2="193.663" gradientUnits="userSpaceOnUse">
<stop offset="0.144416" stop-color="#C41818"/>
<stop offset="1" stop-color="#072B24"/>
</linearGradient>
</defs>
</svg>
