<svg width="1860" height="1310" viewBox="0 0 1860 1310" fill="none" xmlns="http://www.w3.org/2000/svg">
<path d="M1725.2 902.257L1625.8 958.957M1580.19 985.261L1625.8 958.957M1658.54 884.137L1756.77 940.252M1642.17 893.489L1740.4 949.604M1625.8 902.842L1724.03 958.957M1609.42 912.194L1707.65 968.309M1593.05 921.547L1691.28 977.662M1625.8 958.957L1674.91 987.014" stroke="#191F28" stroke-width="3" stroke-linecap="round" stroke-linejoin="round"/>
<path d="M512.522 5L5 294.928L758.097 725.144L332.434 968.309L921.814 1305L1855 771.906L512.522 5Z" stroke="#191F28" stroke-width="10" stroke-linejoin="round"/>
<path d="M1805.89 912.194L1707.66 856.079L1511.2 968.309L1609.43 1024.42L1805.89 912.194Z" stroke="#191F28" stroke-width="4" stroke-linejoin="round"/>
<path d="M1134.65 322.985L954.559 425.863M1232.88 379.1L1052.79 481.978" stroke="#191F28" stroke-width="4" stroke-linecap="round" stroke-linejoin="round"/>
<path d="M1152.19 369.163L1052.79 425.863M1007.18 452.167L1052.79 425.863M1085.53 351.043L1183.76 407.158M1069.16 360.395L1167.39 416.511M1052.79 369.748L1151.02 425.863M1036.41 379.101L1134.64 435.216M1020.04 388.453L1118.27 444.568M1052.79 425.863L1101.9 453.921" stroke="#191F28" stroke-width="3" stroke-linecap="round" stroke-linejoin="round"/>
<path d="M1069.16 472.626L970.93 416.511L954.559 425.863L1052.79 481.978L1069.16 472.626Z" fill="#191F28"/>
<path d="M889.072 650.324L643.497 510.036L627.125 519.389L872.7 659.676L889.072 650.324Z" fill="#191F28"/>
<path d="M1052.79 481.978L1183.76 556.798L1331.11 472.626L1200.13 397.806L1052.79 481.978Z" stroke="#191F28" stroke-width="4" stroke-linejoin="round"/>
<path d="M823.584 351.043L954.557 425.863L1101.9 341.69L970.929 266.87L823.584 351.043Z" stroke="#191F28" stroke-width="4" stroke-linejoin="round"/>
<path d="M512.522 5L5 294.928L512.522 584.856L872.699 379.101L823.584 351.043L970.929 266.87L512.522 5Z" stroke="#191F28" stroke-width="4" stroke-linejoin="round"/>
<path d="M921.814 631.619L987.301 669.029L1069.16 622.267L1003.67 584.856L921.814 631.619Z" stroke="#191F28" stroke-width="4" stroke-linejoin="round"/>
<path d="M921.814 1305L332.434 968.309L1003.67 584.856L1036.42 603.561L1151.02 538.094L1183.76 556.799L1331.11 472.626L1855 771.907L921.814 1305Z" stroke="#191F28" stroke-width="4" stroke-linejoin="round"/>
<g filter="url(#filter0_f_2686_3442)">
<ellipse cx="1125" cy="926" rx="35" ry="10" fill="black" fill-opacity="0.25"/>
</g>
<path d="M1180 833.28C1180 863.81 1169.88 870.526 1125 926C1080.34 870.998 1070 863.81 1070 833.28C1070 802.75 1094.62 778 1125 778C1155.38 778 1180 802.75 1180 833.28Z" fill="url(#paint0_linear_2686_3442)"/>
<rect x="1087.07" y="795.465" width="75.8621" height="75.8974" rx="37.931" fill="white"/>
<path d="M1114.02 848.913L1113.98 844.229L1125.15 833.96C1128.05 831.188 1129.62 829.47 1129.62 826.999C1129.62 824.228 1127.54 822.509 1124.68 822.53C1121.76 822.509 1119.84 824.356 1119.87 827.343H1113.72C1113.7 821.263 1118.21 817.374 1124.76 817.374C1131.42 817.374 1135.85 821.177 1135.85 826.569C1135.85 830.114 1134.13 833.015 1127.73 838.815L1123 843.413V843.585H1136.28V848.913H1114.02Z" fill="#191F28"/>
<g filter="url(#filter1_f_2686_3442)">
<ellipse cx="509" cy="345" rx="35" ry="10" fill="black" fill-opacity="0.25"/>
</g>
<path d="M564 252.28C564 282.81 553.878 289.526 509 345C464.338 289.998 454 282.81 454 252.28C454 221.75 478.624 197 509 197C539.376 197 564 221.75 564 252.28Z" fill="url(#paint1_linear_2686_3442)"/>
<rect x="471.068" y="214.465" width="75.8621" height="75.8974" rx="37.931" fill="white"/>
<path d="M514.543 267.913H508.055V242.948H507.883L500.75 247.417V241.702L508.441 236.804H514.543V267.913Z" fill="#191F28"/>
<path d="M438.758 156.141H435.047V147.273H428.523V144.227H435.047V135.32H438.758V156.141ZM409.578 152.977C411.349 152.352 412.898 151.453 414.227 150.281C415.555 149.096 416.57 147.749 417.273 146.238C417.99 144.715 418.341 143.146 418.328 141.531V140.75H410.75V137.742H429.617V140.75H422.117V141.492C422.104 142.977 422.436 144.415 423.113 145.809C423.79 147.202 424.767 148.445 426.043 149.539C427.319 150.62 428.823 151.453 430.555 152.039L428.641 154.969C426.714 154.305 425.034 153.315 423.602 152C422.182 150.672 421.082 149.122 420.301 147.352C419.533 149.331 418.393 151.069 416.883 152.566C415.372 154.064 413.589 155.19 411.531 155.945L409.578 152.977ZM415.203 163.719C415.203 162.339 415.672 161.16 416.609 160.184C417.56 159.194 418.921 158.439 420.691 157.918C422.475 157.384 424.591 157.117 427.039 157.117C429.474 157.117 431.577 157.384 433.348 157.918C435.118 158.439 436.479 159.194 437.43 160.184C438.393 161.16 438.875 162.339 438.875 163.719C438.875 165.099 438.393 166.277 437.43 167.254C436.479 168.243 435.118 168.999 433.348 169.52C431.577 170.053 429.474 170.32 427.039 170.32C424.591 170.32 422.475 170.053 420.691 169.52C418.921 168.999 417.56 168.243 416.609 167.254C415.672 166.277 415.203 165.099 415.203 163.719ZM418.875 163.719C418.862 164.904 419.572 165.822 421.004 166.473C422.449 167.111 424.461 167.417 427.039 167.391C429.591 167.417 431.583 167.111 433.016 166.473C434.461 165.822 435.19 164.904 435.203 163.719C435.19 162.547 434.474 161.635 433.055 160.984C431.648 160.333 429.682 160.008 427.156 160.008C424.526 160.008 422.482 160.327 421.023 160.965C419.578 161.603 418.862 162.521 418.875 163.719ZM475.18 165.984H443.148V162.898H457.25V155.711H446.82V137.703H450.531V143.719H467.719V137.703H471.391V155.711H460.922V162.898H475.18V165.984ZM467.719 152.703V146.727H450.531V152.703H467.719ZM489.57 144.227C489.557 146.336 489.941 148.413 490.723 150.457C491.517 152.501 492.617 154.318 494.023 155.906C495.443 157.482 497.044 158.667 498.828 159.461L496.602 162.391C494.609 161.44 492.845 160.034 491.309 158.172C489.772 156.31 488.587 154.174 487.754 151.766C486.934 154.37 485.736 156.668 484.16 158.66C482.598 160.652 480.781 162.156 478.711 163.172L476.445 160.047C478.255 159.253 479.87 158.035 481.289 156.395C482.708 154.741 483.815 152.853 484.609 150.73C485.417 148.595 485.82 146.427 485.82 144.227V138.25H489.57V144.227ZM501.992 135.32H505.703V170.398H501.992V135.32ZM528.062 140.281C528.062 142.13 528.655 143.927 529.84 145.672C531.025 147.417 532.6 148.908 534.566 150.145C536.546 151.368 538.648 152.182 540.875 152.586L539.156 155.672C537.281 155.268 535.491 154.604 533.785 153.68C532.079 152.755 530.562 151.629 529.234 150.301C527.919 148.96 526.891 147.482 526.148 145.867C525.393 147.469 524.352 148.94 523.023 150.281C521.695 151.609 520.178 152.736 518.473 153.66C516.767 154.585 514.977 155.255 513.102 155.672L511.461 152.586C513.661 152.169 515.732 151.349 517.672 150.125C519.625 148.888 521.194 147.404 522.379 145.672C523.564 143.927 524.156 142.13 524.156 140.281V137.625H528.062V140.281ZM510.289 162.625H542.32V165.711H510.289V162.625ZM558.742 140.594H548.977V144.383H557.375V147.273H548.977V151.453C551.398 151.427 553.443 151.355 555.109 151.238C556.789 151.121 558.495 150.906 560.227 150.594L560.578 153.523C558.664 153.888 556.776 154.129 554.914 154.246C553.065 154.363 550.656 154.422 547.688 154.422H545.422V137.547H558.742V140.594ZM550.305 157.898H573.703V169.891H550.305V157.898ZM570.07 166.883V160.828H554.016V166.883H570.07ZM558.977 143.992H563.312V135.906H566.828V156.062H563.312V147H558.977V143.992ZM570.188 135.32H573.703V156.336H570.188V135.32ZM606.414 153.328H602.742V135.32H606.414V153.328ZM577.547 150.203C579.331 149.604 580.887 148.732 582.215 147.586C583.556 146.44 584.578 145.118 585.281 143.621C585.997 142.124 586.362 140.568 586.375 138.953V136.258H590.164V138.953C590.164 140.503 590.516 141.987 591.219 143.406C591.922 144.826 592.931 146.076 594.246 147.156C595.561 148.224 597.104 149.031 598.875 149.578L597.039 152.469C595.008 151.805 593.243 150.815 591.746 149.5C590.249 148.185 589.103 146.629 588.309 144.832C587.501 146.772 586.329 148.465 584.793 149.91C583.27 151.355 581.479 152.43 579.422 153.133L577.547 150.203ZM583.445 155.008H606.453V163.758H587.156V167H607.625V169.969H583.562V160.945H602.781V157.938H583.445V155.008Z" fill="#191F28"/>
<path d="M921.219 343.375H925.438V345.875H921.219V359.656H918.25V331.656H921.219V343.375ZM898.938 352.031C902.115 352.031 904.594 352.005 906.375 351.953V349.109C905.323 348.953 904.401 348.646 903.609 348.188C902.828 347.729 902.224 347.146 901.797 346.438C901.38 345.719 901.177 344.917 901.188 344.031C901.177 342.99 901.448 342.073 902 341.281C902.562 340.49 903.349 339.875 904.359 339.438C905.38 339 906.552 338.781 907.875 338.781C909.188 338.781 910.354 339 911.375 339.438C912.396 339.875 913.193 340.49 913.766 341.281C914.339 342.073 914.625 342.99 914.625 344.031C914.625 344.917 914.406 345.719 913.969 346.438C913.531 347.146 912.911 347.734 912.109 348.203C911.318 348.661 910.396 348.964 909.344 349.109V351.844C912.094 351.708 914.531 351.49 916.656 351.188L916.844 353.375C914.312 353.823 911.693 354.125 908.984 354.281C906.286 354.427 903.443 354.5 900.453 354.5H899.406L898.938 352.031ZM899.469 334.969H906.375V331.719H909.344V334.969H916.25V337.344H899.469V334.969ZM903.969 344.031C903.969 344.615 904.13 345.125 904.453 345.562C904.776 345.99 905.224 346.323 905.797 346.562C906.38 346.792 907.057 346.906 907.828 346.906C909.026 346.906 909.979 346.651 910.688 346.141C911.406 345.63 911.771 344.927 911.781 344.031C911.781 343.438 911.615 342.922 911.281 342.484C910.958 342.036 910.5 341.693 909.906 341.453C909.323 341.214 908.646 341.094 907.875 341.094C907.094 341.094 906.406 341.214 905.812 341.453C905.229 341.693 904.776 342.036 904.453 342.484C904.13 342.922 903.969 343.438 903.969 344.031ZM935.919 336.812C935.908 338 936.169 339.135 936.7 340.219C937.242 341.292 938.018 342.245 939.028 343.078C940.039 343.901 941.242 344.531 942.638 344.969L941.231 347.281C939.658 346.781 938.294 346.031 937.138 345.031C935.992 344.031 935.106 342.854 934.481 341.5C933.867 343.052 932.955 344.406 931.747 345.562C930.539 346.708 929.106 347.573 927.45 348.156L925.919 345.781C927.346 345.312 928.591 344.625 929.653 343.719C930.716 342.812 931.528 341.766 932.091 340.578C932.653 339.391 932.94 338.146 932.95 336.844V336.062H926.794V333.656H941.95V336.062H935.919V336.812ZM929.7 354.344C929.7 353.26 930.075 352.328 930.825 351.547C931.585 350.766 932.669 350.172 934.075 349.766C935.492 349.359 937.169 349.156 939.106 349.156C941.023 349.156 942.674 349.359 944.059 349.766C945.455 350.172 946.523 350.766 947.263 351.547C948.013 352.328 948.388 353.26 948.388 354.344C948.388 355.448 948.013 356.391 947.263 357.172C946.523 357.964 945.455 358.562 944.059 358.969C942.674 359.385 941.023 359.594 939.106 359.594C937.169 359.594 935.492 359.385 934.075 358.969C932.669 358.562 931.585 357.964 930.825 357.172C930.075 356.391 929.7 355.448 929.7 354.344ZM932.669 354.344C932.658 355.271 933.21 355.99 934.325 356.5C935.45 357 937.013 357.25 939.013 357.25C941.065 357.25 942.658 357 943.794 356.5C944.929 356 945.492 355.281 945.481 354.344C945.492 353.438 944.945 352.74 943.841 352.25C942.736 351.75 941.19 351.5 939.2 351.5C937.127 351.5 935.518 351.745 934.372 352.234C933.226 352.724 932.658 353.427 932.669 354.344ZM945.169 331.656H948.138V338.594H952.2V341.031H948.138V348.469H945.169V331.656ZM976.181 346.062H973.244V331.656H976.181V346.062ZM953.088 343.562C954.515 343.083 955.759 342.385 956.822 341.469C957.895 340.552 958.713 339.495 959.275 338.297C959.848 337.099 960.14 335.854 960.15 334.562V332.406H963.181V334.562C963.181 335.802 963.463 336.99 964.025 338.125C964.588 339.26 965.395 340.26 966.447 341.125C967.499 341.979 968.733 342.625 970.15 343.062L968.681 345.375C967.056 344.844 965.645 344.052 964.447 343C963.249 341.948 962.332 340.703 961.697 339.266C961.051 340.818 960.114 342.172 958.884 343.328C957.666 344.484 956.233 345.344 954.588 345.906L953.088 343.562ZM957.806 347.406H976.213V354.406H960.775V357H977.15V359.375H957.9V352.156H973.275V349.75H957.806V347.406ZM981.537 348.375C981.548 345.49 981.944 342.812 982.725 340.344C983.517 337.865 984.662 335.552 986.162 333.406H989.225C988.496 334.458 987.808 335.812 987.162 337.469C986.517 339.115 985.996 340.896 985.6 342.812C985.204 344.729 985.006 346.583 985.006 348.375C985.006 350.167 985.204 352.026 985.6 353.953C985.996 355.87 986.517 357.656 987.162 359.312C987.808 360.969 988.496 362.323 989.225 363.375H986.162C984.662 361.219 983.517 358.901 982.725 356.422C981.944 353.943 981.548 351.26 981.537 348.375ZM998.081 333.75C999.352 333.76 1000.49 334.115 1001.5 334.812C1002.52 335.5 1003.35 336.479 1003.97 337.75H1010.89V331.656H1013.83V359.719H1010.89V348.969H1004.18C1003.57 350.385 1002.74 351.484 1001.68 352.266C1000.62 353.036 999.425 353.417 998.081 353.406C996.696 353.406 995.461 353.005 994.378 352.203C993.305 351.401 992.467 350.255 991.863 348.766C991.269 347.276 990.977 345.542 990.988 343.562C990.977 341.604 991.269 339.885 991.863 338.406C992.467 336.917 993.305 335.771 994.378 334.969C995.461 334.156 996.696 333.75 998.081 333.75ZM993.8 343.562C993.8 345.021 993.977 346.292 994.331 347.375C994.696 348.458 995.201 349.292 995.847 349.875C996.493 350.458 997.238 350.75 998.081 350.75C998.925 350.75 999.67 350.458 1000.32 349.875C1000.96 349.292 1001.46 348.458 1001.82 347.375C1002.18 346.292 1002.36 345.021 1002.36 343.562C1002.36 342.125 1002.18 340.87 1001.82 339.797C1001.45 338.714 1000.95 337.88 1000.3 337.297C999.665 336.703 998.925 336.406 998.081 336.406C997.238 336.406 996.493 336.703 995.847 337.297C995.211 337.88 994.711 338.714 994.347 339.797C993.982 340.87 993.8 342.125 993.8 343.562ZM1004.82 340.188C1005.06 341.312 1005.18 342.438 1005.18 343.562C1005.18 344.615 1005.08 345.604 1004.89 346.531H1010.89V340.188H1004.82ZM1025.03 348.375C1025.02 351.26 1024.62 353.943 1023.83 356.422C1023.05 358.901 1021.91 361.219 1020.41 363.375H1017.34C1018.07 362.323 1018.76 360.969 1019.41 359.312C1020.05 357.656 1020.57 355.87 1020.97 353.953C1021.36 352.026 1021.56 350.167 1021.56 348.375C1021.56 346.583 1021.36 344.729 1020.97 342.812C1020.57 340.896 1020.05 339.115 1019.41 337.469C1018.76 335.812 1018.07 334.458 1017.34 333.406H1020.41C1021.91 335.552 1023.05 337.865 1023.83 340.344C1024.62 342.812 1025.02 345.49 1025.03 348.375Z" fill="#191F28"/>
<path d="M1150.22 474.375H1154.44V476.875H1150.22V490.656H1147.25V462.656H1150.22V474.375ZM1127.94 483.031C1131.11 483.031 1133.59 483.005 1135.38 482.953V480.109C1134.32 479.953 1133.4 479.646 1132.61 479.188C1131.83 478.729 1131.22 478.146 1130.8 477.438C1130.38 476.719 1130.18 475.917 1130.19 475.031C1130.18 473.99 1130.45 473.073 1131 472.281C1131.56 471.49 1132.35 470.875 1133.36 470.438C1134.38 470 1135.55 469.781 1136.88 469.781C1138.19 469.781 1139.35 470 1140.38 470.438C1141.4 470.875 1142.19 471.49 1142.77 472.281C1143.34 473.073 1143.62 473.99 1143.62 475.031C1143.62 475.917 1143.41 476.719 1142.97 477.438C1142.53 478.146 1141.91 478.734 1141.11 479.203C1140.32 479.661 1139.4 479.964 1138.34 480.109V482.844C1141.09 482.708 1143.53 482.49 1145.66 482.188L1145.84 484.375C1143.31 484.823 1140.69 485.125 1137.98 485.281C1135.29 485.427 1132.44 485.5 1129.45 485.5H1128.41L1127.94 483.031ZM1128.47 465.969H1135.38V462.719H1138.34V465.969H1145.25V468.344H1128.47V465.969ZM1132.97 475.031C1132.97 475.615 1133.13 476.125 1133.45 476.562C1133.78 476.99 1134.22 477.323 1134.8 477.562C1135.38 477.792 1136.06 477.906 1136.83 477.906C1138.03 477.906 1138.98 477.651 1139.69 477.141C1140.41 476.63 1140.77 475.927 1140.78 475.031C1140.78 474.438 1140.61 473.922 1140.28 473.484C1139.96 473.036 1139.5 472.693 1138.91 472.453C1138.32 472.214 1137.65 472.094 1136.88 472.094C1136.09 472.094 1135.41 472.214 1134.81 472.453C1134.23 472.693 1133.78 473.036 1133.45 473.484C1133.13 473.922 1132.97 474.438 1132.97 475.031ZM1164.92 467.812C1164.91 469 1165.17 470.135 1165.7 471.219C1166.24 472.292 1167.02 473.245 1168.03 474.078C1169.04 474.901 1170.24 475.531 1171.64 475.969L1170.23 478.281C1168.66 477.781 1167.29 477.031 1166.14 476.031C1164.99 475.031 1164.11 473.854 1163.48 472.5C1162.87 474.052 1161.96 475.406 1160.75 476.562C1159.54 477.708 1158.11 478.573 1156.45 479.156L1154.92 476.781C1156.35 476.312 1157.59 475.625 1158.65 474.719C1159.72 473.812 1160.53 472.766 1161.09 471.578C1161.65 470.391 1161.94 469.146 1161.95 467.844V467.062H1155.79V464.656H1170.95V467.062H1164.92V467.812ZM1158.7 485.344C1158.7 484.26 1159.08 483.328 1159.83 482.547C1160.59 481.766 1161.67 481.172 1163.08 480.766C1164.49 480.359 1166.17 480.156 1168.11 480.156C1170.02 480.156 1171.67 480.359 1173.06 480.766C1174.46 481.172 1175.52 481.766 1176.26 482.547C1177.01 483.328 1177.39 484.26 1177.39 485.344C1177.39 486.448 1177.01 487.391 1176.26 488.172C1175.52 488.964 1174.46 489.562 1173.06 489.969C1171.67 490.385 1170.02 490.594 1168.11 490.594C1166.17 490.594 1164.49 490.385 1163.08 489.969C1161.67 489.562 1160.59 488.964 1159.83 488.172C1159.08 487.391 1158.7 486.448 1158.7 485.344ZM1161.67 485.344C1161.66 486.271 1162.21 486.99 1163.33 487.5C1164.45 488 1166.01 488.25 1168.01 488.25C1170.06 488.25 1171.66 488 1172.79 487.5C1173.93 487 1174.49 486.281 1174.48 485.344C1174.49 484.438 1173.94 483.74 1172.84 483.25C1171.74 482.75 1170.19 482.5 1168.2 482.5C1166.13 482.5 1164.52 482.745 1163.37 483.234C1162.23 483.724 1161.66 484.427 1161.67 485.344ZM1174.17 462.656H1177.14V469.594H1181.2V472.031H1177.14V479.469H1174.17V462.656ZM1205.18 477.062H1202.24V462.656H1205.18V477.062ZM1182.09 474.562C1183.51 474.083 1184.76 473.385 1185.82 472.469C1186.89 471.552 1187.71 470.495 1188.28 469.297C1188.85 468.099 1189.14 466.854 1189.15 465.562V463.406H1192.18V465.562C1192.18 466.802 1192.46 467.99 1193.03 469.125C1193.59 470.26 1194.39 471.26 1195.45 472.125C1196.5 472.979 1197.73 473.625 1199.15 474.062L1197.68 476.375C1196.06 475.844 1194.64 475.052 1193.45 474C1192.25 472.948 1191.33 471.703 1190.7 470.266C1190.05 471.818 1189.11 473.172 1187.88 474.328C1186.67 475.484 1185.23 476.344 1183.59 476.906L1182.09 474.562ZM1186.81 478.406H1205.21V485.406H1189.78V488H1206.15V490.375H1186.9V483.156H1202.28V480.75H1186.81V478.406ZM1210.54 479.375C1210.55 476.49 1210.94 473.812 1211.72 471.344C1212.52 468.865 1213.66 466.552 1215.16 464.406H1218.22C1217.5 465.458 1216.81 466.812 1216.16 468.469C1215.52 470.115 1215 471.896 1214.6 473.812C1214.2 475.729 1214.01 477.583 1214.01 479.375C1214.01 481.167 1214.2 483.026 1214.6 484.953C1215 486.87 1215.52 488.656 1216.16 490.312C1216.81 491.969 1217.5 493.323 1218.22 494.375H1215.16C1213.66 492.219 1212.52 489.901 1211.72 487.422C1210.94 484.943 1210.55 482.26 1210.54 479.375ZM1241.49 468.906H1245.58V471.375H1241.49V478.469H1238.52V462.688H1241.49V468.906ZM1220.77 464.062H1223.74V474.094C1227.87 474.062 1231.89 473.656 1235.8 472.875L1236.18 475.312C1233.96 475.76 1231.77 476.078 1229.63 476.266C1227.49 476.453 1225.3 476.552 1223.05 476.562H1220.77V464.062ZM1223.55 479.938H1241.49V490.281H1223.55V479.938ZM1238.61 487.906V482.25H1226.46V487.906H1238.61ZM1254.03 479.375C1254.02 482.26 1253.62 484.943 1252.83 487.422C1252.05 489.901 1250.91 492.219 1249.41 494.375H1246.34C1247.07 493.323 1247.76 491.969 1248.41 490.312C1249.05 488.656 1249.57 486.87 1249.97 484.953C1250.36 483.026 1250.56 481.167 1250.56 479.375C1250.56 477.583 1250.36 475.729 1249.97 473.812C1249.57 471.896 1249.05 470.115 1248.41 468.469C1247.76 466.812 1247.07 465.458 1246.34 464.406H1249.41C1250.91 466.552 1252.05 468.865 1252.83 471.344C1253.62 473.812 1254.02 476.49 1254.03 479.375Z" fill="#191F28"/>
<path d="M1059.14 733.508H1073.28V736.555H1041.36V733.508H1055.46V728.781H1059.14V733.508ZM1043 727.688C1045.1 727.479 1047.01 727.049 1048.75 726.398C1050.48 725.747 1051.88 724.947 1052.95 723.996C1054.01 723.033 1054.63 721.997 1054.8 720.891H1044.29V717.922H1070.43V720.891H1059.8C1059.97 721.997 1060.59 723.033 1061.66 723.996C1062.74 724.947 1064.14 725.747 1065.88 726.398C1067.62 727.049 1069.54 727.479 1071.64 727.688L1070.31 730.617C1068.28 730.383 1066.39 729.96 1064.64 729.348C1062.91 728.723 1061.41 727.935 1060.13 726.984C1058.87 726.021 1057.93 724.934 1057.3 723.723C1056.35 725.546 1054.72 727.062 1052.42 728.273C1050.11 729.484 1047.42 730.266 1044.33 730.617L1043 727.688ZM1045.15 745.188C1045.15 743.885 1045.63 742.779 1046.6 741.867C1047.56 740.956 1048.95 740.266 1050.76 739.797C1052.58 739.328 1054.76 739.094 1057.3 739.094C1059.81 739.094 1061.97 739.328 1063.77 739.797C1065.58 740.266 1066.96 740.956 1067.93 741.867C1068.89 742.779 1069.37 743.885 1069.37 745.188C1069.37 746.477 1068.89 747.577 1067.93 748.488C1066.96 749.4 1065.58 750.083 1063.77 750.539C1061.97 751.008 1059.81 751.242 1057.3 751.242C1054.76 751.242 1052.58 751.008 1050.76 750.539C1048.95 750.083 1047.56 749.4 1046.6 748.488C1045.63 747.577 1045.15 746.477 1045.15 745.188ZM1048.9 745.188C1048.89 746.229 1049.61 747.03 1051.05 747.59C1052.51 748.15 1054.59 748.43 1057.3 748.43C1059.97 748.43 1062.03 748.15 1063.47 747.59C1064.93 747.03 1065.66 746.229 1065.66 745.188C1065.66 744.146 1064.94 743.352 1063.49 742.805C1062.05 742.245 1059.98 741.958 1057.3 741.945C1054.59 741.958 1052.51 742.245 1051.05 742.805C1049.61 743.352 1048.89 744.146 1048.9 745.188ZM1102.43 725.109H1107.51V728.234H1102.43V736.711H1098.72V716.32H1102.43V725.109ZM1074.97 719.758H1083.57V716.008H1087.28V719.758H1095.83V722.727H1074.97V719.758ZM1076.89 730.305C1076.89 729.081 1077.24 728.007 1077.94 727.082C1078.64 726.145 1079.64 725.428 1080.93 724.934C1082.23 724.426 1083.72 724.172 1085.4 724.172C1087.07 724.172 1088.54 724.426 1089.82 724.934C1091.11 725.428 1092.1 726.145 1092.8 727.082C1093.52 728.007 1093.88 729.081 1093.88 730.305C1093.88 731.529 1093.52 732.609 1092.8 733.547C1092.1 734.471 1091.11 735.188 1089.82 735.695C1088.54 736.203 1087.07 736.451 1085.4 736.438C1083.72 736.451 1082.23 736.21 1080.93 735.715C1079.64 735.207 1078.64 734.484 1077.94 733.547C1077.24 732.609 1076.89 731.529 1076.89 730.305ZM1080.05 738.156H1083.72V741.555H1098.72V738.156H1102.43V750.891H1080.05V738.156ZM1080.48 730.305C1080.47 730.995 1080.66 731.594 1081.07 732.102C1081.47 732.609 1082.04 733.007 1082.79 733.293C1083.54 733.566 1084.41 733.703 1085.4 733.703C1086.9 733.69 1088.1 733.384 1089.02 732.785C1089.93 732.173 1090.39 731.346 1090.4 730.305C1090.39 729.641 1090.17 729.055 1089.76 728.547C1089.34 728.039 1088.76 727.648 1088.02 727.375C1087.28 727.089 1086.42 726.945 1085.46 726.945C1084.47 726.945 1083.6 727.082 1082.84 727.355C1082.09 727.629 1081.5 728.02 1081.09 728.527C1080.67 729.035 1080.47 729.628 1080.48 730.305ZM1098.72 747.922V744.445H1083.72V747.922H1098.72ZM1120.69 726.633C1120.69 728.469 1121.07 730.331 1121.82 732.219C1122.58 734.094 1123.63 735.799 1124.99 737.336C1126.36 738.859 1127.9 740.031 1129.64 740.852L1127.53 743.742C1125.6 742.818 1123.88 741.438 1122.37 739.602C1120.86 737.753 1119.7 735.669 1118.89 733.352C1118.09 735.865 1116.9 738.13 1115.32 740.148C1113.76 742.154 1111.99 743.651 1110.03 744.641L1107.84 741.711C1109.57 740.878 1111.13 739.654 1112.53 738.039C1113.93 736.411 1115.03 734.595 1115.83 732.59C1116.62 730.572 1117.02 728.586 1117.02 726.633V722.922H1109.13V719.836H1128.31V722.922H1120.69V726.633ZM1132.06 716.32H1135.77V730.188H1141.39V733.312H1135.77V751.32H1132.06V716.32ZM1174.11 747.141H1142.07V744.016H1150.82V737.844H1145.98V726.711H1166.53V721.828H1145.9V718.781H1170.2V729.719H1149.65V734.797H1171.02V737.844H1165.71V744.016H1174.11V747.141ZM1162.07 744.016V737.844H1154.42V744.016H1162.07ZM1204.63 734.328H1200.96V716.32H1204.63V734.328ZM1175.76 731.203C1177.55 730.604 1179.1 729.732 1180.43 728.586C1181.77 727.44 1182.79 726.118 1183.5 724.621C1184.21 723.124 1184.58 721.568 1184.59 719.953V717.258H1188.38V719.953C1188.38 721.503 1188.73 722.987 1189.43 724.406C1190.14 725.826 1191.15 727.076 1192.46 728.156C1193.78 729.224 1195.32 730.031 1197.09 730.578L1195.25 733.469C1193.22 732.805 1191.46 731.815 1189.96 730.5C1188.46 729.185 1187.32 727.629 1186.52 725.832C1185.72 727.772 1184.54 729.465 1183.01 730.91C1181.48 732.355 1179.69 733.43 1177.64 734.133L1175.76 731.203ZM1181.66 736.008H1204.67V744.758H1185.37V748H1205.84V750.969H1181.78V741.945H1201V738.938H1181.66V736.008Z" fill="#191F28"/>
<path d="M972.612 615.375H986.8V618.344H976.05V625.188H986.05V628.125H976.05V635.031H986.925V638H972.612V615.375ZM991.281 641.406H988.312L995.594 614.312H998.562L991.281 641.406ZM1008.89 633.781H1009.14L1015.42 615.375H1019.14L1010.98 638H1007.01L998.887 615.375H1002.61L1008.89 633.781Z" fill="#191F28"/>
<defs>
<filter id="filter0_f_2686_3442" x="1085" y="911" width="80" height="30" filterUnits="userSpaceOnUse" color-interpolation-filters="sRGB">
<feFlood flood-opacity="0" result="BackgroundImageFix"/>
<feBlend mode="normal" in="SourceGraphic" in2="BackgroundImageFix" result="shape"/>
<feGaussianBlur stdDeviation="2.5" result="effect1_foregroundBlur_2686_3442"/>
</filter>
<filter id="filter1_f_2686_3442" x="469" y="330" width="80" height="30" filterUnits="userSpaceOnUse" color-interpolation-filters="sRGB">
<feFlood flood-opacity="0" result="BackgroundImageFix"/>
<feBlend mode="normal" in="SourceGraphic" in2="BackgroundImageFix" result="shape"/>
<feGaussianBlur stdDeviation="2.5" result="effect1_foregroundBlur_2686_3442"/>
</filter>
<linearGradient id="paint0_linear_2686_3442" x1="1156.7" y1="793.156" x2="1094.25" y2="900.663" gradientUnits="userSpaceOnUse">
<stop offset="0.144416" stop-color="#C41818"/>
<stop offset="1" stop-color="#072B24"/>
</linearGradient>
<linearGradient id="paint1_linear_2686_3442" x1="540.703" y1="212.156" x2="478.25" y2="319.663" gradientUnits="userSpaceOnUse">
<stop offset="0.144416" stop-color="#C41818"/>
<stop offset="1" stop-color="#072B24"/>
</linearGradient>
</defs>
</svg>
